<mxfile host="app.diagrams.net" agent="Mozilla/5.0 (Windows NT 10.0; Win64; x64) AppleWebKit/537.36 (KHTML, like Gecko) Chrome/129.0.0.0 Safari/537.36" version="24.7.16">
  <diagram name="Diagrama de Flujo HelpDesk" id="TB-DrqtRLVA7CixV_qeZ">
    <mxGraphModel dx="1035" dy="551" grid="1" gridSize="10" guides="1" tooltips="1" connect="1" arrows="1" fold="1" page="1" pageScale="1" pageWidth="827" pageHeight="1169" math="0" shadow="0">
      <root>
        <mxCell id="0" />
        <mxCell id="1" parent="0" />
        <mxCell id="ZjJ1GrN28KD24BUfxD4o-1" value="Login" style="rounded=1;whiteSpace=wrap;html=1;labelBackgroundColor=none;" parent="1" vertex="1">
          <mxGeometry x="330" y="395" width="120" height="60" as="geometry" />
        </mxCell>
        <mxCell id="ZjJ1GrN28KD24BUfxD4o-2" style="edgeStyle=orthogonalEdgeStyle;rounded=0;orthogonalLoop=1;jettySize=auto;html=1;labelBackgroundColor=none;fontColor=default;" parent="1" source="ZjJ1GrN28KD24BUfxD4o-3" target="ZjJ1GrN28KD24BUfxD4o-29" edge="1">
          <mxGeometry relative="1" as="geometry">
            <Array as="points">
              <mxPoint x="790" y="590" />
              <mxPoint x="790" y="435" />
            </Array>
          </mxGeometry>
        </mxCell>
        <mxCell id="ZjJ1GrN28KD24BUfxD4o-3" value="Home de Usuario" style="rounded=1;whiteSpace=wrap;html=1;labelBackgroundColor=none;" parent="1" vertex="1">
          <mxGeometry x="622" y="560" width="120" height="60" as="geometry" />
        </mxCell>
        <mxCell id="ZjJ1GrN28KD24BUfxD4o-4" style="edgeStyle=orthogonalEdgeStyle;rounded=0;orthogonalLoop=1;jettySize=auto;html=1;labelBackgroundColor=none;fontColor=default;" parent="1" source="ZjJ1GrN28KD24BUfxD4o-6" target="ZjJ1GrN28KD24BUfxD4o-7" edge="1">
          <mxGeometry relative="1" as="geometry" />
        </mxCell>
        <mxCell id="ZjJ1GrN28KD24BUfxD4o-5" style="edgeStyle=orthogonalEdgeStyle;rounded=0;orthogonalLoop=1;jettySize=auto;html=1;entryX=0.5;entryY=1;entryDx=0;entryDy=0;entryPerimeter=0;labelBackgroundColor=none;fontColor=default;" parent="1" source="ZjJ1GrN28KD24BUfxD4o-6" target="ZjJ1GrN28KD24BUfxD4o-32" edge="1">
          <mxGeometry relative="1" as="geometry">
            <mxPoint x="1363" y="463" as="targetPoint" />
          </mxGeometry>
        </mxCell>
        <mxCell id="ZjJ1GrN28KD24BUfxD4o-6" value="Consultar Ticket" style="rounded=1;whiteSpace=wrap;html=1;labelBackgroundColor=none;" parent="1" vertex="1">
          <mxGeometry x="810" y="500" width="120" height="60" as="geometry" />
        </mxCell>
        <mxCell id="ZjJ1GrN28KD24BUfxD4o-7" value="Panel de Conversación" style="rounded=1;whiteSpace=wrap;html=1;labelBackgroundColor=none;" parent="1" vertex="1">
          <mxGeometry x="810" y="610" width="120" height="60" as="geometry" />
        </mxCell>
        <mxCell id="ZjJ1GrN28KD24BUfxD4o-8" style="edgeStyle=orthogonalEdgeStyle;rounded=0;orthogonalLoop=1;jettySize=auto;html=1;labelBackgroundColor=none;fontColor=default;" parent="1" source="ZjJ1GrN28KD24BUfxD4o-10" target="ZjJ1GrN28KD24BUfxD4o-1" edge="1">
          <mxGeometry relative="1" as="geometry" />
        </mxCell>
        <mxCell id="ZjJ1GrN28KD24BUfxD4o-9" style="edgeStyle=orthogonalEdgeStyle;rounded=0;orthogonalLoop=1;jettySize=auto;html=1;entryX=0.5;entryY=0;entryDx=0;entryDy=0;labelBackgroundColor=none;fontColor=default;" parent="1" source="ZjJ1GrN28KD24BUfxD4o-10" target="ZjJ1GrN28KD24BUfxD4o-13" edge="1">
          <mxGeometry relative="1" as="geometry" />
        </mxCell>
        <mxCell id="ZjJ1GrN28KD24BUfxD4o-10" value="User/Pass&lt;div&gt;correcto&lt;/div&gt;" style="rhombus;whiteSpace=wrap;html=1;labelBackgroundColor=none;" parent="1" vertex="1">
          <mxGeometry x="490" y="385" width="80" height="80" as="geometry" />
        </mxCell>
        <mxCell id="ZjJ1GrN28KD24BUfxD4o-11" value="Si" style="text;html=1;align=center;verticalAlign=middle;whiteSpace=wrap;rounded=0;labelBackgroundColor=none;" parent="1" vertex="1">
          <mxGeometry x="570" y="395" width="60" height="30" as="geometry" />
        </mxCell>
        <mxCell id="ZjJ1GrN28KD24BUfxD4o-12" style="edgeStyle=orthogonalEdgeStyle;rounded=0;orthogonalLoop=1;jettySize=auto;html=1;entryX=0.5;entryY=0;entryDx=0;entryDy=0;labelBackgroundColor=none;fontColor=default;" parent="1" source="ZjJ1GrN28KD24BUfxD4o-13" target="ZjJ1GrN28KD24BUfxD4o-17" edge="1">
          <mxGeometry relative="1" as="geometry" />
        </mxCell>
        <mxCell id="ZjJ1GrN28KD24BUfxD4o-13" value="Verificar user/pass" style="rounded=1;whiteSpace=wrap;html=1;labelBackgroundColor=none;" parent="1" vertex="1">
          <mxGeometry x="470" y="515" width="120" height="60" as="geometry" />
        </mxCell>
        <mxCell id="ZjJ1GrN28KD24BUfxD4o-14" value="No" style="text;html=1;align=center;verticalAlign=middle;whiteSpace=wrap;rounded=0;labelBackgroundColor=none;" parent="1" vertex="1">
          <mxGeometry x="520" y="470" width="60" height="30" as="geometry" />
        </mxCell>
        <mxCell id="ZjJ1GrN28KD24BUfxD4o-15" style="edgeStyle=orthogonalEdgeStyle;rounded=0;orthogonalLoop=1;jettySize=auto;html=1;entryX=0.5;entryY=1;entryDx=0;entryDy=0;labelBackgroundColor=none;fontColor=default;" parent="1" source="ZjJ1GrN28KD24BUfxD4o-17" target="ZjJ1GrN28KD24BUfxD4o-1" edge="1">
          <mxGeometry relative="1" as="geometry" />
        </mxCell>
        <mxCell id="ZjJ1GrN28KD24BUfxD4o-16" style="edgeStyle=orthogonalEdgeStyle;rounded=0;orthogonalLoop=1;jettySize=auto;html=1;labelBackgroundColor=none;fontColor=default;" parent="1" source="ZjJ1GrN28KD24BUfxD4o-17" target="ZjJ1GrN28KD24BUfxD4o-19" edge="1">
          <mxGeometry relative="1" as="geometry" />
        </mxCell>
        <mxCell id="ZjJ1GrN28KD24BUfxD4o-17" value="user/pass&lt;div&gt;Verificados&lt;/div&gt;" style="rhombus;whiteSpace=wrap;html=1;labelBackgroundColor=none;" parent="1" vertex="1">
          <mxGeometry x="490" y="618.5" width="80" height="80" as="geometry" />
        </mxCell>
        <mxCell id="ZjJ1GrN28KD24BUfxD4o-18" style="edgeStyle=orthogonalEdgeStyle;rounded=0;orthogonalLoop=1;jettySize=auto;html=1;entryX=0;entryY=0.5;entryDx=0;entryDy=0;labelBackgroundColor=none;fontColor=default;exitX=0;exitY=0.5;exitDx=0;exitDy=0;" parent="1" source="ZjJ1GrN28KD24BUfxD4o-50" target="ZjJ1GrN28KD24BUfxD4o-1" edge="1">
          <mxGeometry relative="1" as="geometry" />
        </mxCell>
        <mxCell id="ZjJ1GrN28KD24BUfxD4o-51" style="edgeStyle=orthogonalEdgeStyle;rounded=0;orthogonalLoop=1;jettySize=auto;html=1;" parent="1" source="ZjJ1GrN28KD24BUfxD4o-19" target="ZjJ1GrN28KD24BUfxD4o-50" edge="1">
          <mxGeometry relative="1" as="geometry" />
        </mxCell>
        <mxCell id="ZjJ1GrN28KD24BUfxD4o-19" value="Restablecer usuario/contraseña" style="rounded=1;whiteSpace=wrap;html=1;labelBackgroundColor=none;" parent="1" vertex="1">
          <mxGeometry x="470" y="755" width="120" height="60" as="geometry" />
        </mxCell>
        <mxCell id="ZjJ1GrN28KD24BUfxD4o-20" value="Si" style="text;html=1;align=center;verticalAlign=middle;whiteSpace=wrap;rounded=0;labelBackgroundColor=none;" parent="1" vertex="1">
          <mxGeometry x="410" y="630" width="60" height="30" as="geometry" />
        </mxCell>
        <mxCell id="ZjJ1GrN28KD24BUfxD4o-21" value="No" style="text;html=1;align=center;verticalAlign=middle;whiteSpace=wrap;rounded=0;labelBackgroundColor=none;" parent="1" vertex="1">
          <mxGeometry x="520" y="710" width="60" height="30" as="geometry" />
        </mxCell>
        <mxCell id="ZjJ1GrN28KD24BUfxD4o-22" style="edgeStyle=orthogonalEdgeStyle;rounded=0;orthogonalLoop=1;jettySize=auto;html=1;entryX=0.5;entryY=0;entryDx=0;entryDy=0;labelBackgroundColor=none;fontColor=default;" parent="1" source="ZjJ1GrN28KD24BUfxD4o-24" target="ZjJ1GrN28KD24BUfxD4o-29" edge="1">
          <mxGeometry relative="1" as="geometry" />
        </mxCell>
        <mxCell id="ZjJ1GrN28KD24BUfxD4o-24" value="¿Enviar?" style="rhombus;whiteSpace=wrap;html=1;labelBackgroundColor=none;" parent="1" vertex="1">
          <mxGeometry x="990" y="395" width="80" height="80" as="geometry" />
        </mxCell>
        <mxCell id="ZjJ1GrN28KD24BUfxD4o-25" value="Si" style="text;html=1;align=center;verticalAlign=middle;whiteSpace=wrap;rounded=0;labelBackgroundColor=none;" parent="1" vertex="1">
          <mxGeometry x="1050.5" y="410" width="60" height="30" as="geometry" />
        </mxCell>
        <mxCell id="ZjJ1GrN28KD24BUfxD4o-26" value="No" style="text;html=1;align=center;verticalAlign=middle;whiteSpace=wrap;rounded=0;labelBackgroundColor=none;" parent="1" vertex="1">
          <mxGeometry x="883" y="355" width="60" height="30" as="geometry" />
        </mxCell>
        <mxCell id="ZjJ1GrN28KD24BUfxD4o-27" style="edgeStyle=orthogonalEdgeStyle;rounded=0;orthogonalLoop=1;jettySize=auto;html=1;entryX=0;entryY=0.5;entryDx=0;entryDy=0;labelBackgroundColor=none;fontColor=default;" parent="1" source="ZjJ1GrN28KD24BUfxD4o-29" target="ZjJ1GrN28KD24BUfxD4o-24" edge="1">
          <mxGeometry relative="1" as="geometry" />
        </mxCell>
        <mxCell id="ZjJ1GrN28KD24BUfxD4o-28" style="edgeStyle=orthogonalEdgeStyle;rounded=0;orthogonalLoop=1;jettySize=auto;html=1;labelBackgroundColor=none;fontColor=default;" parent="1" source="ZjJ1GrN28KD24BUfxD4o-29" target="ZjJ1GrN28KD24BUfxD4o-6" edge="1">
          <mxGeometry relative="1" as="geometry" />
        </mxCell>
        <mxCell id="ZjJ1GrN28KD24BUfxD4o-29" value="Crear ticket" style="shape=process;whiteSpace=wrap;html=1;backgroundOutline=1;labelBackgroundColor=none;" parent="1" vertex="1">
          <mxGeometry x="810" y="405" width="120" height="60" as="geometry" />
        </mxCell>
        <mxCell id="ZjJ1GrN28KD24BUfxD4o-32" value="MySQL" style="strokeWidth=2;html=1;shape=mxgraph.flowchart.database;whiteSpace=wrap;labelBackgroundColor=none;" parent="1" vertex="1">
          <mxGeometry x="1274" y="405" width="60" height="60" as="geometry" />
        </mxCell>
        <mxCell id="ZjJ1GrN28KD24BUfxD4o-33" style="edgeStyle=orthogonalEdgeStyle;rounded=0;orthogonalLoop=1;jettySize=auto;html=1;labelBackgroundColor=none;fontColor=default;" parent="1" source="ZjJ1GrN28KD24BUfxD4o-34" target="ZjJ1GrN28KD24BUfxD4o-37" edge="1">
          <mxGeometry relative="1" as="geometry" />
        </mxCell>
        <mxCell id="ZjJ1GrN28KD24BUfxD4o-34" value="Home Gestor" style="rounded=1;whiteSpace=wrap;html=1;labelBackgroundColor=none;" parent="1" vertex="1">
          <mxGeometry x="622" y="701" width="120" height="60" as="geometry" />
        </mxCell>
        <mxCell id="ZjJ1GrN28KD24BUfxD4o-35" value="Consultar Ticket" style="rounded=1;whiteSpace=wrap;html=1;labelBackgroundColor=none;" parent="1" vertex="1">
          <mxGeometry x="983" y="701" width="120" height="60" as="geometry" />
        </mxCell>
        <mxCell id="ZjJ1GrN28KD24BUfxD4o-36" style="edgeStyle=orthogonalEdgeStyle;rounded=0;orthogonalLoop=1;jettySize=auto;html=1;labelBackgroundColor=none;fontColor=default;" parent="1" source="ZjJ1GrN28KD24BUfxD4o-37" target="ZjJ1GrN28KD24BUfxD4o-35" edge="1">
          <mxGeometry relative="1" as="geometry" />
        </mxCell>
        <mxCell id="ZjJ1GrN28KD24BUfxD4o-37" value="&lt;span style=&quot;background-color: initial;&quot;&gt;Tickets Pendientes&lt;/span&gt;" style="shape=process;whiteSpace=wrap;html=1;backgroundOutline=1;labelBackgroundColor=none;" parent="1" vertex="1">
          <mxGeometry x="810" y="701" width="120" height="60" as="geometry" />
        </mxCell>
        <mxCell id="ZjJ1GrN28KD24BUfxD4o-38" style="edgeStyle=orthogonalEdgeStyle;rounded=0;orthogonalLoop=1;jettySize=auto;html=1;labelBackgroundColor=none;fontColor=default;" parent="1" source="ZjJ1GrN28KD24BUfxD4o-40" target="ZjJ1GrN28KD24BUfxD4o-7" edge="1">
          <mxGeometry relative="1" as="geometry" />
        </mxCell>
        <mxCell id="ZjJ1GrN28KD24BUfxD4o-39" style="edgeStyle=orthogonalEdgeStyle;rounded=0;orthogonalLoop=1;jettySize=auto;html=1;entryX=0.5;entryY=1;entryDx=0;entryDy=0;labelBackgroundColor=none;fontColor=default;" parent="1" source="ZjJ1GrN28KD24BUfxD4o-40" target="ZjJ1GrN28KD24BUfxD4o-37" edge="1">
          <mxGeometry relative="1" as="geometry">
            <Array as="points">
              <mxPoint x="1153" y="640" />
              <mxPoint x="1153" y="781" />
              <mxPoint x="870" y="781" />
            </Array>
          </mxGeometry>
        </mxCell>
        <mxCell id="ZjJ1GrN28KD24BUfxD4o-40" value="Resolver&lt;div&gt;Ticket&lt;/div&gt;" style="strokeWidth=2;html=1;shape=mxgraph.flowchart.decision;whiteSpace=wrap;labelBackgroundColor=none;" parent="1" vertex="1">
          <mxGeometry x="1005" y="602" width="76" height="76" as="geometry" />
        </mxCell>
        <mxCell id="ZjJ1GrN28KD24BUfxD4o-41" style="edgeStyle=orthogonalEdgeStyle;rounded=0;orthogonalLoop=1;jettySize=auto;html=1;entryX=0.5;entryY=1;entryDx=0;entryDy=0;entryPerimeter=0;labelBackgroundColor=none;fontColor=default;" parent="1" source="ZjJ1GrN28KD24BUfxD4o-35" target="ZjJ1GrN28KD24BUfxD4o-40" edge="1">
          <mxGeometry relative="1" as="geometry" />
        </mxCell>
        <mxCell id="ZjJ1GrN28KD24BUfxD4o-42" style="edgeStyle=orthogonalEdgeStyle;rounded=0;orthogonalLoop=1;jettySize=auto;html=1;entryX=1;entryY=0.5;entryDx=0;entryDy=0;entryPerimeter=0;labelBackgroundColor=none;fontColor=default;" parent="1" source="ZjJ1GrN28KD24BUfxD4o-35" target="ZjJ1GrN28KD24BUfxD4o-32" edge="1">
          <mxGeometry relative="1" as="geometry" />
        </mxCell>
        <mxCell id="ZjJ1GrN28KD24BUfxD4o-43" value="Si" style="text;html=1;align=center;verticalAlign=middle;whiteSpace=wrap;rounded=0;labelBackgroundColor=none;" parent="1" vertex="1">
          <mxGeometry x="940" y="615" width="60" height="30" as="geometry" />
        </mxCell>
        <mxCell id="ZjJ1GrN28KD24BUfxD4o-44" value="No" style="text;html=1;align=center;verticalAlign=middle;whiteSpace=wrap;rounded=0;labelBackgroundColor=none;" parent="1" vertex="1">
          <mxGeometry x="1059" y="615" width="60" height="30" as="geometry" />
        </mxCell>
        <mxCell id="ZjJ1GrN28KD24BUfxD4o-45" style="edgeStyle=orthogonalEdgeStyle;rounded=0;orthogonalLoop=1;jettySize=auto;html=1;labelBackgroundColor=none;fontColor=default;" parent="1" source="ZjJ1GrN28KD24BUfxD4o-47" target="ZjJ1GrN28KD24BUfxD4o-34" edge="1">
          <mxGeometry relative="1" as="geometry" />
        </mxCell>
        <mxCell id="ZjJ1GrN28KD24BUfxD4o-46" style="edgeStyle=orthogonalEdgeStyle;rounded=0;orthogonalLoop=1;jettySize=auto;html=1;entryX=0.5;entryY=1;entryDx=0;entryDy=0;labelBackgroundColor=none;fontColor=default;" parent="1" source="ZjJ1GrN28KD24BUfxD4o-47" target="ZjJ1GrN28KD24BUfxD4o-3" edge="1">
          <mxGeometry relative="1" as="geometry" />
        </mxCell>
        <mxCell id="ZjJ1GrN28KD24BUfxD4o-47" value="" style="verticalLabelPosition=bottom;verticalAlign=top;html=1;shape=mxgraph.flowchart.summing_function;labelBackgroundColor=none;" parent="1" vertex="1">
          <mxGeometry x="669.5" y="646" width="25" height="25" as="geometry" />
        </mxCell>
        <mxCell id="ZjJ1GrN28KD24BUfxD4o-48" style="edgeStyle=orthogonalEdgeStyle;rounded=0;orthogonalLoop=1;jettySize=auto;html=1;entryX=0;entryY=0.5;entryDx=0;entryDy=0;entryPerimeter=0;labelBackgroundColor=none;fontColor=default;" parent="1" source="ZjJ1GrN28KD24BUfxD4o-17" target="ZjJ1GrN28KD24BUfxD4o-47" edge="1">
          <mxGeometry relative="1" as="geometry" />
        </mxCell>
        <mxCell id="ZjJ1GrN28KD24BUfxD4o-49" style="edgeStyle=orthogonalEdgeStyle;rounded=0;orthogonalLoop=1;jettySize=auto;html=1;entryX=1;entryY=0.5;entryDx=0;entryDy=0;entryPerimeter=0;" parent="1" source="ZjJ1GrN28KD24BUfxD4o-10" target="ZjJ1GrN28KD24BUfxD4o-47" edge="1">
          <mxGeometry relative="1" as="geometry">
            <Array as="points">
              <mxPoint x="760" y="425" />
              <mxPoint x="760" y="659" />
            </Array>
          </mxGeometry>
        </mxCell>
        <mxCell id="ZjJ1GrN28KD24BUfxD4o-50" value="Envio de credenciales al email institucional" style="shape=process;whiteSpace=wrap;html=1;backgroundOutline=1;" parent="1" vertex="1">
          <mxGeometry x="455" y="860" width="150" height="60" as="geometry" />
        </mxCell>
        <mxCell id="ZjJ1GrN28KD24BUfxD4o-54" style="edgeStyle=orthogonalEdgeStyle;rounded=0;orthogonalLoop=1;jettySize=auto;html=1;" parent="1" source="ZjJ1GrN28KD24BUfxD4o-52" target="ZjJ1GrN28KD24BUfxD4o-32" edge="1">
          <mxGeometry relative="1" as="geometry" />
        </mxCell>
        <mxCell id="ZjJ1GrN28KD24BUfxD4o-52" value="Ticket Generado Exitosamente" style="strokeWidth=2;html=1;shape=mxgraph.flowchart.display;whiteSpace=wrap;" parent="1" vertex="1">
          <mxGeometry x="1110.5" y="410" width="130" height="50" as="geometry" />
        </mxCell>
        <mxCell id="ZjJ1GrN28KD24BUfxD4o-53" style="edgeStyle=orthogonalEdgeStyle;rounded=0;orthogonalLoop=1;jettySize=auto;html=1;entryX=0;entryY=0.5;entryDx=0;entryDy=0;entryPerimeter=0;" parent="1" source="ZjJ1GrN28KD24BUfxD4o-24" target="ZjJ1GrN28KD24BUfxD4o-52" edge="1">
          <mxGeometry relative="1" as="geometry" />
        </mxCell>
        <mxCell id="ZjJ1GrN28KD24BUfxD4o-55" value="Se&amp;nbsp;&lt;div&gt;resolvió&lt;/div&gt;" style="strokeWidth=2;html=1;shape=mxgraph.flowchart.decision;whiteSpace=wrap;" parent="1" vertex="1">
          <mxGeometry x="820" y="810" width="85" height="80" as="geometry" />
        </mxCell>
        <mxCell id="ZjJ1GrN28KD24BUfxD4o-56" style="edgeStyle=orthogonalEdgeStyle;rounded=0;orthogonalLoop=1;jettySize=auto;html=1;entryX=0;entryY=0.5;entryDx=0;entryDy=0;entryPerimeter=0;" parent="1" source="ZjJ1GrN28KD24BUfxD4o-7" target="ZjJ1GrN28KD24BUfxD4o-55" edge="1">
          <mxGeometry relative="1" as="geometry">
            <Array as="points">
              <mxPoint x="770" y="640" />
              <mxPoint x="770" y="850" />
            </Array>
          </mxGeometry>
        </mxCell>
        <mxCell id="ZjJ1GrN28KD24BUfxD4o-58" value="Final" style="strokeWidth=2;html=1;shape=mxgraph.flowchart.start_1;whiteSpace=wrap;" parent="1" vertex="1">
          <mxGeometry x="970" y="830" width="65" height="40" as="geometry" />
        </mxCell>
        <mxCell id="ZjJ1GrN28KD24BUfxD4o-59" style="edgeStyle=orthogonalEdgeStyle;rounded=0;orthogonalLoop=1;jettySize=auto;html=1;entryX=0;entryY=0.5;entryDx=0;entryDy=0;entryPerimeter=0;" parent="1" source="ZjJ1GrN28KD24BUfxD4o-55" target="ZjJ1GrN28KD24BUfxD4o-58" edge="1">
          <mxGeometry relative="1" as="geometry" />
        </mxCell>
        <mxCell id="ZjJ1GrN28KD24BUfxD4o-60" value="Si" style="text;html=1;align=center;verticalAlign=middle;whiteSpace=wrap;rounded=0;labelBackgroundColor=none;" parent="1" vertex="1">
          <mxGeometry x="900" y="825" width="60" height="30" as="geometry" />
        </mxCell>
      </root>
    </mxGraphModel>
  </diagram>
</mxfile>
